With: Logan Lerman, Uma Thurman en Pierce Brosnan

Percy Jackson (Logan Lerman) is een jongen die op het punt staat om van de middelbare school getrapt te worden. Alweer. Maar dat is niet zijn grootste zorg. Dankzij een Satyr, genaamd Grover, komt Percy er achter dat hij deel uitmaakt van een mythische wereld vol magische wezens en dat hij de nakomeling is van de Griekse god Poseidon. Als de bliksemschicht van Zeus wordt gestolen, hebben Percy en zijn vrienden tien dagen de tijd om zijn onschuld te bewijzen en om een oorlog tussen de goden te voorkomen.

A teenager discovers he's the descendant of a Greek god and sets out on an adventure to settle an on-going battle between the gods.

------------------------ Dutch Friends ------------------------
---------------------------------------------------------------
- Bezoek ook eens mijn vrienden op:  http://www.Film-Test.nl --
----- voor mijn Nederlandse Sync. ondertitels ---- en meer ----
------- http://www.Film-Test.nl ---- voor Films en meer -------
---------------------------------------------------------------

General:

Complete name                    : Percy Jackson & the Olympians\The Lightning Thief.avi
Format                           : AVI
Format/Info                      : Audio Video Interleave
File size                        : 1.73 GiB
Duration                         : 1h 53mn
Overall bit rate                 : 2 179 Kbps

Video:

Format                           : MPEG-4 Visual
Format profile                   : Simple@L3
Format settings, BVOP            : No
Format settings, QPel            : No
Format settings, GMC             : No warppoints
Format settings, Matrix          : Default (H.263)
Codec ID                         : XVID
Codec ID/Hint                    : XviD
Duration                         : 1h 53mn
Bit rate                         : 1 720 Kbps
Width                            : 720 pixels
Height                           : 304 pixels
Display aspect ratio             : 2.35:1
Frame rate                       : 25.000 fps
Color space                      : YUV
Chroma subsampling               : 4:2:0
Bit depth                        : 8 bits
Scan type                        : Progressive
Compression mode                 : Lossy
Bits/(Pixel*Frame)               : 0.314
Stream size                      : 1.37 GiB (79%)
Writing library                  : XviD 1.1.2 (UTC 2006-11-01)

Audio:

Format                           : AC-3
Format/Info                      : Audio Coding 3
Mode extension                   : CM (complete main)
Codec ID                         : 2000
Duration                         : 1h 53mn
Bit rate mode                    : Constant
Bit rate                         : 448 Kbps
Channel(s)                       : 6 channels
Channel positions                : Front: L C R, Side: L R, LFE
Sampling rate                    : 48.0 KHz
Bit depth                        : 16 bits
Compression mode                 : Lossy
Stream size                      : 365 MiB (21%)
Alignment                        : Aligned on interleaves
Interleave, duration             : 32 ms (0.80 video frame)

